<svg width="25" height="26" viewBox="0 0 25 26" fill="none" xmlns="http://www.w3.org/2000/svg">
<path fill-rule="evenodd" clip-rule="evenodd" d="M7.738 4.83502C10.9022 4.48468 14.0954 4.48468 17.2596 4.83502C19.0115 5.03138 20.4249 6.41104 20.6305 8.16911C21.0055 11.3784 21.0055 14.6205 20.6305 17.8298C20.4249 19.5879 19.0115 20.9675 17.2596 21.1639C14.0954 21.5142 10.9022 21.5142 7.738 21.1639C5.98607 20.9675 4.57266 19.5879 4.36709 17.8298C3.99222 14.6208 3.99222 11.3791 4.36709 8.17013C4.47107 7.31602 4.86044 6.52206 5.47208 5.91691C6.08373 5.31176 6.88181 4.93089 7.73698 4.83604M12.4988 7.89297C12.7022 7.89297 12.8973 7.97379 13.0412 8.11764C13.185 8.26149 13.2658 8.45659 13.2658 8.66002V12.2324H16.8382C17.0417 12.2324 17.2368 12.3132 17.3806 12.4571C17.5245 12.6009 17.6053 12.796 17.6053 12.9995C17.6053 13.2029 17.5245 13.398 17.3806 13.5418C17.2368 13.6857 17.0417 13.7665 16.8382 13.7665H13.2658V17.3389C13.2658 17.5423 13.185 17.7374 13.0412 17.8813C12.8973 18.0251 12.7022 18.1059 12.4988 18.1059C12.2954 18.1059 12.1003 18.0251 11.9564 17.8813C11.8126 17.7374 11.7318 17.5423 11.7318 17.3389V13.7665H8.15937C7.95593 13.7665 7.76083 13.6857 7.61698 13.5418C7.47314 13.398 7.39232 13.2029 7.39232 12.9995C7.39232 12.796 7.47314 12.6009 7.61698 12.4571C7.76083 12.3132 7.95593 12.2324 8.15937 12.2324H11.7318V8.66002C11.7318 8.45659 11.8126 8.26149 11.9564 8.11764C12.1003 7.97379 12.2954 7.89297 12.4988 7.89297Z" fill="black"/>
</svg>
