<svg width="24" height="25" viewBox="0 0 24 25" fill="none" xmlns="http://www.w3.org/2000/svg">
<path d="M5.616 11C5.15533 11 4.771 10.846 4.463 10.538C4.155 10.23 4.00067 9.84567 4 9.385V6.115C4 5.655 4.15433 5.271 4.463 4.963C4.77167 4.655 5.156 4.50067 5.616 4.5H8.885C9.345 4.5 9.72933 4.65433 10.038 4.963C10.3467 5.27167 10.5007 5.656 10.5 6.116V9.385C10.5 9.845 10.346 10.2293 10.038 10.538C9.73 10.8467 9.34567 11.0007 8.885 11H5.616ZM5.616 20.5C5.15533 20.5 4.771 20.346 4.463 20.038C4.155 19.73 4.00067 19.3453 4 18.884V15.616C4 15.1553 4.15433 14.771 4.463 14.463C4.77167 14.155 5.156 14.0007 5.616 14H8.885C9.345 14 9.72933 14.1543 10.038 14.463C10.3467 14.7717 10.5007 15.156 10.5 15.616V18.885C10.5 19.345 10.346 19.7293 10.038 20.038C9.73 20.3467 9.34567 20.5007 8.885 20.5H5.616ZM15.116 11C14.6553 11 14.271 10.846 13.963 10.538C13.655 10.23 13.5007 9.84567 13.5 9.385V6.115C13.5 5.655 13.6543 5.271 13.963 4.963C14.2717 4.655 14.656 4.50067 15.116 4.5H18.385C18.845 4.5 19.2293 4.65433 19.538 4.963C19.8467 5.27167 20.0007 5.656 20 6.116V9.385C20 9.845 19.846 10.2293 19.538 10.538C19.23 10.8467 18.8453 11.0007 18.384 11H15.116ZM15.116 20.5C14.6553 20.5 14.271 20.346 13.963 20.038C13.655 19.73 13.5007 19.3453 13.5 18.884V15.616C13.5 15.1553 13.6543 14.771 13.963 14.463C14.2717 14.155 14.656 14.0007 15.116 14H18.385C18.845 14 19.2293 14.1543 19.538 14.463C19.8467 14.7717 20.0007 15.156 20 15.616V18.885C20 19.345 19.846 19.7293 19.538 20.038C19.23 20.3467 18.8453 20.5007 18.384 20.5H15.116Z" fill="black"/>
</svg>
