<svg width="21" height="21" viewBox="0 0 21 21" fill="none" xmlns="http://www.w3.org/2000/svg">
<mask id="mask0_1_11167" style="mask-type:luminance" maskUnits="userSpaceOnUse" x="0" y="0" width="21" height="20">
<path d="M11.8125 6.125L3.9375 9.58125H17.0625L14.875 6.5625" stroke="white" stroke-width="2" stroke-linecap="round" stroke-linejoin="round"/>
<path d="M13.5625 7.4375C14.529 7.4375 15.3125 6.654 15.3125 5.6875C15.3125 4.721 14.529 3.9375 13.5625 3.9375C12.596 3.9375 11.8125 4.721 11.8125 5.6875C11.8125 6.654 12.596 7.4375 13.5625 7.4375Z" fill="black" stroke="white" stroke-width="2"/>
<path d="M14.4375 3.9375L15.3125 1.75" stroke="white" stroke-width="2" stroke-linecap="round"/>
<path d="M4.15625 11.7935C3.89288 11.925 3.64817 12.0644 3.42213 12.2117C2.37037 12.8977 1.75 13.7425 1.75 14.656C1.75 16.9516 5.66738 18.8123 10.5 18.8123C15.3326 18.8123 19.25 16.9516 19.25 14.656C19.25 13.7198 18.599 12.8566 17.5 12.1618" stroke="white" stroke-width="2"/>
<path d="M3.9375 9.625H17.0625V14.875H3.9375V9.625Z" fill="white" stroke="white" stroke-width="2" stroke-linecap="round" stroke-linejoin="round"/>
<path d="M3.9375 9.625H17.5" stroke="white" stroke-width="2"/>
</mask>
<g mask="url(#mask0_1_11167)">
<path d="M0 0H21V21H0V0Z" fill="black"/>
</g>
</svg>
