<svg width="28" height="28" viewBox="0 0 28 28" fill="none" xmlns="http://www.w3.org/2000/svg">
<path d="M22.1667 3.5H5.83333C5.21449 3.5 4.621 3.74583 4.18342 4.18342C3.74583 4.621 3.5 5.21449 3.5 5.83333V22.1667C3.5 22.7855 3.74583 23.379 4.18342 23.8166C4.621 24.2542 5.21449 24.5 5.83333 24.5H22.1667C22.7855 24.5 23.379 24.2542 23.8166 23.8166C24.2542 23.379 24.5 22.7855 24.5 22.1667V5.83333C24.5 5.21449 24.2542 4.621 23.8166 4.18342C23.379 3.74583 22.7855 3.5 22.1667 3.5ZM22.1667 22.1667H5.83333V5.83333H22.1667V22.1667ZM10.5 19.8333H8.16667V14H10.5V19.8333ZM15.1667 19.8333H12.8333V8.16667H15.1667V19.8333ZM19.8333 19.8333H17.5V11.6667H19.8333V19.8333Z" fill="black"/>
</svg>
