<svg width="21" height="21" viewBox="0 0 21 21" fill="none" xmlns="http://www.w3.org/2000/svg">
<path d="M17.6399 11.1388C18.2218 10.5577 18.6656 9.85319 18.9385 9.07743C19.2114 8.30167 19.3065 7.47448 19.2166 6.65704C19.1267 5.8396 18.8542 5.05282 18.4192 4.35491C17.9842 3.65699 17.3979 3.06579 16.7036 2.62503C14.9449 1.46128 12.5911 1.45253 10.8149 2.59878C9.27488 3.58753 8.42613 5.12753 8.27738 6.72003C8.16363 7.87503 7.72613 8.95128 6.92113 9.75628L6.89488 9.78253C5.87988 10.7975 5.87988 12.3463 6.83363 13.2913L7.69988 14.1575C8.15831 14.6157 8.7799 14.873 9.42801 14.873C10.0761 14.873 10.6977 14.6157 11.1561 14.1575C12.0049 13.3088 13.1249 12.845 14.3411 12.7138C15.5399 12.5825 16.7124 12.0575 17.6399 11.1388ZM5.47738 17.3775C5.71363 17.8675 5.63488 18.4625 5.22363 18.865C5.04552 19.0458 4.81851 19.1707 4.57045 19.2244C4.32239 19.278 4.06407 19.2581 3.82717 19.167C3.59026 19.076 3.38509 18.9178 3.2368 18.7118C3.08851 18.5058 3.00357 18.2611 2.99238 18.0075C2.73883 17.9963 2.49406 17.9114 2.28809 17.7631C2.08213 17.6148 1.92392 17.4096 1.83287 17.1727C1.74183 16.9358 1.72191 16.6775 1.77555 16.4295C1.8292 16.1814 1.95408 15.9544 2.13488 15.7763C2.53738 15.3738 3.14113 15.2863 3.62238 15.5225L5.79238 13.3963C5.91488 13.5625 6.05488 13.755 6.21238 13.9125L7.07863 14.7788C7.26238 14.9538 7.43738 15.1025 7.66488 15.2338L5.47738 17.3775Z" fill="black"/>
</svg>
