<svg width="21" height="21" viewBox="0 0 21 21" fill="none" xmlns="http://www.w3.org/2000/svg">
<path d="M15.7509 17.5H17.5V19.25H10.5C5.66738 19.25 1.75 15.3326 1.75 10.5C1.75 5.66738 5.66738 1.75 10.5 1.75C15.3326 1.75 19.25 5.66738 19.25 10.5C19.2508 11.8584 18.9349 13.1984 18.3276 14.4135C17.7202 15.6285 16.8379 16.6853 15.7509 17.5ZM10.5 8.75C10.9641 8.75 11.4092 8.56563 11.7374 8.23744C12.0656 7.90925 12.25 7.46413 12.25 7C12.25 6.53587 12.0656 6.09075 11.7374 5.76256C11.4092 5.43437 10.9641 5.25 10.5 5.25C10.0359 5.25 9.59075 5.43437 9.26256 5.76256C8.93437 6.09075 8.75 6.53587 8.75 7C8.75 7.46413 8.93437 7.90925 9.26256 8.23744C9.59075 8.56563 10.0359 8.75 10.5 8.75ZM7 12.25C7.46413 12.25 7.90925 12.0656 8.23744 11.7374C8.56563 11.4092 8.75 10.9641 8.75 10.5C8.75 10.0359 8.56563 9.59075 8.23744 9.26256C7.90925 8.93437 7.46413 8.75 7 8.75C6.53587 8.75 6.09075 8.93437 5.76256 9.26256C5.43437 9.59075 5.25 10.0359 5.25 10.5C5.25 10.9641 5.43437 11.4092 5.76256 11.7374C6.09075 12.0656 6.53587 12.25 7 12.25ZM14 12.25C14.4641 12.25 14.9092 12.0656 15.2374 11.7374C15.5656 11.4092 15.75 10.9641 15.75 10.5C15.75 10.0359 15.5656 9.59075 15.2374 9.26256C14.9092 8.93437 14.4641 8.75 14 8.75C13.5359 8.75 13.0908 8.93437 12.7626 9.26256C12.4344 9.59075 12.25 10.0359 12.25 10.5C12.25 10.9641 12.4344 11.4092 12.7626 11.7374C13.0908 12.0656 13.5359 12.25 14 12.25ZM10.5 15.75C10.9641 15.75 11.4092 15.5656 11.7374 15.2374C12.0656 14.9092 12.25 14.4641 12.25 14C12.25 13.5359 12.0656 13.0908 11.7374 12.7626C11.4092 12.4344 10.9641 12.25 10.5 12.25C10.0359 12.25 9.59075 12.4344 9.26256 12.7626C8.93437 13.0908 8.75 13.5359 8.75 14C8.75 14.4641 8.93437 14.9092 9.26256 15.2374C9.59075 15.5656 10.0359 15.75 10.5 15.75Z" fill="black"/>
</svg>
