<svg width="21" height="21" viewBox="0 0 21 21" fill="none" xmlns="http://www.w3.org/2000/svg">
<path d="M18.6866 4.31668L10.8116 1.69168C10.6099 1.62361 10.3915 1.62361 10.1898 1.69168L2.31478 4.31668C2.12687 4.37892 1.9621 4.49636 1.84195 4.65367C1.72181 4.81098 1.65189 5.00086 1.6413 5.19852C1.6404 5.21573 1.6404 5.23298 1.6413 5.2502V11.8127C1.6413 12.0738 1.74501 12.3242 1.92962 12.5088C2.11423 12.6934 2.36461 12.7971 2.62568 12.7971C2.88675 12.7971 3.13713 12.6934 3.32174 12.5088C3.50634 12.3242 3.61005 12.0738 3.61005 11.8127V6.61602L5.55501 7.26407C4.95139 8.41947 4.77202 9.74996 5.0481 11.024C5.32419 12.298 6.03826 13.4348 7.06603 14.2367C5.72107 14.9 4.5828 15.918 3.77412 17.1808C3.70129 17.2891 3.65071 17.4107 3.6253 17.5387C3.5999 17.6666 3.60019 17.7983 3.62614 17.9262C3.6521 18.054 3.70321 18.1754 3.7765 18.2834C3.84979 18.3913 3.9438 18.4836 4.05307 18.5548C4.16233 18.6261 4.28468 18.6749 4.41299 18.6985C4.54129 18.7221 4.67301 18.7199 4.80047 18.6921C4.92793 18.6643 5.0486 18.6115 5.15546 18.5367C5.26232 18.4619 5.35325 18.3665 5.42294 18.2563C6.59353 16.4548 8.4499 15.4221 10.5007 15.4221C12.5515 15.4221 14.4078 16.4548 15.5825 18.2563C15.6522 18.3665 15.7431 18.4619 15.85 18.5367C15.9569 18.6115 16.0775 18.6643 16.205 18.6921C16.3325 18.7199 16.4642 18.7221 16.5925 18.6985C16.7208 18.6749 16.8431 18.6261 16.9524 18.5548C17.0617 18.4836 17.1557 18.3913 17.229 18.2834C17.3023 18.1754 17.3534 18.054 17.3793 17.9262C17.4053 17.7983 17.4056 17.6666 17.3802 17.5387C17.3548 17.4107 17.3042 17.2891 17.2313 17.1808C16.4219 15.9165 15.2821 14.8976 13.9353 14.2343C14.9631 13.4324 15.6772 12.2955 15.9533 11.0215C16.2293 9.7475 16.05 8.41701 15.4463 7.2616L18.6866 6.18125C18.8823 6.11576 19.0525 5.99039 19.1731 5.82287C19.2937 5.65535 19.3586 5.45416 19.3586 5.24774C19.3586 5.04132 19.2937 4.84013 19.1731 4.67261C19.0525 4.50508 18.8823 4.37971 18.6866 4.31422V4.31668ZM10.5007 3.66043L15.2626 5.2502L10.5007 6.8375L5.74287 5.2502L10.5007 3.66043ZM14.1101 9.84395C14.1102 10.4046 13.9797 10.9575 13.7289 11.459C13.4782 11.9604 13.1141 12.3965 12.6655 12.7328C12.2169 13.069 11.6961 13.2961 11.1445 13.3961C10.5928 13.4961 10.0255 13.4662 9.4874 13.3089C8.94931 13.1515 8.45529 12.8709 8.04449 12.4894C7.63369 12.1079 7.31741 11.6359 7.12073 11.1109C6.92404 10.5859 6.85235 10.0223 6.91134 9.46482C6.97034 8.9073 7.15839 8.37119 7.4606 7.89899L10.1898 8.80871C10.3915 8.87649 10.6099 8.87649 10.8116 8.80871L13.5408 7.89899C13.913 8.47935 14.1106 9.15447 14.1101 9.84395Z" fill="black"/>
</svg>
