<svg width="21" height="21" viewBox="0 0 21 21" fill="none" xmlns="http://www.w3.org/2000/svg">
<path d="M20.1264 6.12489C18.584 6.04003 17.0539 6.44091 15.7514 7.27114C15.4364 6.91239 15.1126 6.55363 14.7714 6.21238L14.5176 5.97613L14.6401 5.87113C15.068 5.50382 15.3729 5.01409 15.5138 4.46802C15.6546 3.92195 15.6245 3.34583 15.4276 2.81738C15.1432 2.22079 14.6916 1.71964 14.1277 1.37481C13.5639 1.02997 12.912 0.8563 12.2514 0.874885V2.62488C12.5627 2.62055 12.8695 2.69935 13.1402 2.85317C13.4109 3.00698 13.6357 3.23023 13.7914 3.49988C13.9401 3.84988 13.7914 4.23488 13.3801 4.64613L13.1789 4.82989C12.2662 4.06931 11.2643 3.42287 10.1951 2.90488C7.98137 1.90738 6.84387 2.37113 6.28387 2.90488C6.11355 3.07621 5.97701 3.27805 5.88137 3.49988L5.72387 3.96363L4.46387 7.76113C5.46137 10.2461 7.87637 14.6649 13.1264 16.5724L17.5014 15.1199C17.6489 15.065 17.7789 14.9713 17.8776 14.8486L18.0614 14.6911C19.3126 13.4311 18.5076 11.0074 16.8276 8.65364C17.8252 8.07146 18.9738 7.8003 20.1264 7.87488V6.12489ZM16.8101 13.4486H16.7576C16.1539 13.7724 13.6514 12.9499 10.8164 10.1149C10.5189 9.81738 10.2389 9.52864 9.98512 9.23989C9.89762 9.14363 9.81887 9.03863 9.73137 8.93363L9.26762 8.37363L9.02262 8.03238C8.90012 7.86613 8.77762 7.69988 8.67262 7.54238C8.56762 7.38488 8.53262 7.31488 8.46262 7.20113C8.39262 7.08738 8.27012 6.90363 8.19137 6.75488C8.11262 6.60613 8.07762 6.54488 8.02512 6.43113C7.97262 6.31738 7.87637 6.18613 7.82387 6.06363C7.77137 5.94113 7.74512 5.86239 7.70137 5.76614C7.65762 5.66989 7.60512 5.52988 7.57012 5.41613C7.53512 5.30238 7.52637 5.24989 7.50887 5.16238C7.49137 5.07488 7.45637 4.95238 7.43887 4.86488C7.43466 4.79495 7.43466 4.72482 7.43887 4.65489C7.43063 4.57928 7.43063 4.50299 7.43887 4.42738L7.53512 4.15613C7.68387 3.99863 8.33137 3.95488 9.48637 4.47988C10.2577 4.85167 10.988 5.30331 11.6651 5.82738C11.2961 5.9897 10.903 6.09021 10.5014 6.12489V7.87488C11.4311 7.82323 12.3334 7.54054 13.1264 7.05239L13.5551 7.45489C13.9401 7.83114 14.2814 8.20738 14.5964 8.56613C14.0681 9.46551 13.8585 10.5167 14.0014 11.5499L15.7514 11.2086C15.6917 10.8788 15.6917 10.541 15.7514 10.2111C16.8801 11.9349 17.0901 13.1774 16.8101 13.4486ZM3.85137 9.62488L1.90012 15.4874C1.75928 15.9178 1.72231 16.3754 1.79221 16.8229C1.86211 17.2703 2.0369 17.6949 2.3023 18.0618C2.56771 18.4288 2.91618 18.7277 3.31924 18.9342C3.72229 19.1407 4.1685 19.2489 4.62137 19.2499C4.91909 19.2471 5.21446 19.1969 5.49637 19.1011L11.2014 17.2024C7.98148 15.558 5.39691 12.8934 3.85137 9.62488Z" fill="black"/>
</svg>
