<svg width="24" height="24" viewBox="0 0 24 24" fill="none" xmlns="http://www.w3.org/2000/svg">
<path fill-rule="evenodd" clip-rule="evenodd" d="M4.80713 8.31486C5.58513 7.51086 6.36313 7.24286 7.40013 7.77886C8.33413 8.26136 8.84763 8.30936 9.31913 8.31436C9.81063 8.30936 10.3451 8.26136 11.3181 7.77886C12.3981 7.24286 13.2081 7.51086 14.0186 8.31486C14.9736 9.26286 15.2686 10.2499 15.3691 10.9954C15.3808 11.0554 15.3913 11.1154 15.4006 11.1754C15.0783 11.2694 14.7897 11.4543 14.5695 11.7078C14.3493 11.9613 14.2066 12.2728 14.1586 12.6052C14.1105 12.9376 14.159 13.2767 14.2984 13.5823C14.4378 13.8878 14.6621 14.1468 14.9446 14.3284L14.9051 14.4299C14.7071 14.2897 14.4821 14.1922 14.2444 14.1436C14.0067 14.095 13.7615 14.0964 13.5243 14.1477C13.2872 14.1989 13.0633 14.2989 12.8669 14.4413C12.6704 14.5837 12.5058 14.7654 12.3833 14.9749C12.2608 15.1843 12.1833 15.4169 12.1555 15.6579C12.1277 15.899 12.1504 16.1431 12.222 16.3749C12.2937 16.6067 12.4127 16.8211 12.5716 17.0044C12.7305 17.1878 12.9258 17.336 13.1451 17.4399C13.0978 17.4985 13.0516 17.5537 13.0066 17.6054C12.5891 18.0399 12.1141 18.3184 11.5991 18.2334C9.97913 17.9649 9.70913 17.9649 9.43913 17.9649H9.20413C8.94513 17.9649 8.68563 17.9649 7.13013 18.2334C5.88513 18.4474 4.88513 16.3569 4.38913 15.2854C3.60913 13.6039 3.45363 11.8854 3.51063 10.9954C3.60713 10.2494 3.89063 9.26286 4.80713 8.31536" fill="black"/>
<path fill-rule="evenodd" clip-rule="evenodd" d="M18.9213 9.04499C19.4829 9.24651 19.9415 9.66287 20.1962 10.2025C20.4508 10.7421 20.4807 11.3608 20.2793 11.9225C20.2629 11.9668 20.2417 12.0073 20.2157 12.044C20.6239 12.3949 20.8927 12.8805 20.9735 13.4127C21.0542 13.9448 20.9415 14.4883 20.6558 14.9445C20.5155 15.1683 20.3369 15.3656 20.1283 15.5275C20.1353 15.6008 20.1388 15.675 20.1388 15.75C20.139 16.1235 20.0462 16.4913 19.8688 16.82C20.1474 16.9706 20.3911 17.1784 20.5839 17.4297C20.7767 17.681 20.9143 17.9702 20.9877 18.2784C21.061 18.5865 21.0685 18.9067 21.0095 19.2179C20.9506 19.5291 20.8266 19.8244 20.6457 20.0844C20.4648 20.3444 20.231 20.5633 19.9597 20.7267C19.6883 20.8902 19.3855 20.9944 19.0711 21.0328C18.7567 21.0711 18.4377 21.0426 18.135 20.9492C17.8324 20.8557 17.5528 20.6994 17.3147 20.4905C16.9345 20.8023 16.4626 20.9809 15.9712 20.9991C15.4799 21.0172 14.9961 20.8739 14.5938 20.5911C14.1916 20.3082 13.8931 19.9014 13.744 19.4328C13.5949 18.9643 13.6034 18.4598 13.7682 17.9965C13.1933 17.9656 12.652 17.7154 12.256 17.2974C11.8599 16.8794 11.6391 16.3255 11.6391 15.7497C11.6391 15.1739 11.8599 14.62 12.256 14.2021C12.652 13.7841 13.1933 13.5339 13.7682 13.503C13.6439 13.1531 13.6082 12.778 13.6641 12.4109C13.72 12.0439 13.8658 11.6964 14.0887 11.3994C14.3115 11.1024 14.6043 10.8652 14.9411 10.7088C15.2779 10.5525 15.6481 10.482 16.0188 10.5035C16.0234 10.4698 16.0317 10.4362 16.0437 10.4025C16.2454 9.84093 16.6618 9.38245 17.2014 9.12788C17.741 8.87331 18.3597 8.84349 18.9213 9.04499ZM17.9297 19.6985C18.0639 19.828 18.2254 19.9258 18.4023 19.9848C18.5792 20.0437 18.7671 20.0624 18.9521 20.0394C19.1372 20.0163 19.3147 19.9522 19.4718 19.8516C19.6288 19.751 19.7613 19.6166 19.8597 19.4582C19.958 19.2998 20.0197 19.1213 20.0401 18.936C20.0606 18.7506 20.0393 18.563 19.9778 18.387C19.9164 18.2109 19.8163 18.0508 19.685 17.9185C19.5536 17.7861 19.3943 17.6848 19.2187 17.622C19.2017 17.6159 19.185 17.6089 19.1687 17.601C18.8362 17.831 18.4387 17.974 18.0097 17.997C18.0932 18.232 18.1387 18.486 18.1387 18.75C18.1387 19.089 18.0637 19.41 17.9297 19.6985ZM18.0097 13.5035C18.3572 13.5221 18.6957 13.621 18.9985 13.7926C19.3013 13.9641 19.5601 14.2035 19.7548 14.492C19.8735 14.331 19.9518 14.144 19.9833 13.9465C20.0201 13.7146 19.9909 13.477 19.899 13.2609C19.8071 13.0448 19.6561 12.8589 19.4635 12.7247C19.2708 12.5904 19.0442 12.5131 18.8097 12.5017C18.5751 12.4902 18.3421 12.5451 18.1372 12.66C18.1489 12.9465 18.1056 13.2332 18.0097 13.5035ZM17.8682 11.679C18.3336 11.4813 18.8519 11.446 19.3397 11.579C19.4499 11.267 19.4318 10.924 19.2895 10.6253C19.1472 10.3266 18.8922 10.0965 18.5805 9.98544C18.2688 9.8744 17.9258 9.89147 17.6267 10.0329C17.3276 10.1743 17.0967 10.4286 16.9847 10.74L16.9703 10.776C17.3503 10.9842 17.6621 11.2978 17.8682 11.679ZM15.8888 11.5C15.5572 11.5 15.2393 11.6317 15.0049 11.8661C14.7704 12.1005 14.6388 12.4185 14.6388 12.75C14.6388 13.0815 14.7704 13.3995 15.0049 13.6339C15.2393 13.8683 15.5572 14 15.8888 14C16.2203 14 16.5382 13.8683 16.7726 13.6339C17.0071 13.3995 17.1387 13.0815 17.1387 12.75C17.1387 12.4185 17.0071 12.1005 16.7726 11.8661C16.5382 11.6317 16.2203 11.5 15.8888 11.5ZM13.8888 14.5C13.5572 14.5 13.2393 14.6317 13.0049 14.8661C12.7704 15.1005 12.6388 15.4185 12.6388 15.75C12.6388 16.0815 12.7704 16.3995 13.0049 16.6339C13.2393 16.8683 13.5572 17 13.8888 17C14.2203 17 14.5382 16.8683 14.7726 16.6339C15.0071 16.3995 15.1388 16.0815 15.1388 15.75C15.1388 15.4185 15.0071 15.1005 14.7726 14.8661C14.5382 14.6317 14.2203 14.5 13.8888 14.5ZM16.6387 15.75C16.6387 15.4185 16.7704 15.1005 17.0049 14.8661C17.2393 14.6317 17.5572 14.5 17.8887 14.5C18.2203 14.5 18.5382 14.6317 18.7726 14.8661C19.0071 15.1005 19.1387 15.4185 19.1387 15.75C19.1387 16.0815 19.0071 16.3995 18.7726 16.6339C18.5382 16.8683 18.2203 17 17.8887 17C17.5572 17 17.2393 16.8683 17.0049 16.6339C16.7704 16.3995 16.6387 16.0815 16.6387 15.75ZM15.8888 17.5C15.5572 17.5 15.2393 17.6317 15.0049 17.8661C14.7704 18.1005 14.6388 18.4185 14.6388 18.75C14.6388 19.0815 14.7704 19.3995 15.0049 19.6339C15.2393 19.8683 15.5572 20 15.8888 20C16.2203 20 16.5382 19.8683 16.7726 19.6339C17.0071 19.3995 17.1387 19.0815 17.1387 18.75C17.1387 18.4185 17.0071 18.1005 16.7726 17.8661C16.5382 17.6317 16.2203 17.5 15.8888 17.5ZM3.78125 4.00049H4.34775C5.76775 4.00049 7.10475 4.63899 8.08075 5.48649C8.39799 5.76099 8.68556 6.068 8.93875 6.40249V5.28299C8.93875 5.15038 8.99143 5.0232 9.0852 4.92943C9.17896 4.83567 9.30614 4.78299 9.43875 4.78299C9.57136 4.78299 9.69853 4.83567 9.7923 4.92943C9.88607 5.0232 9.93875 5.15038 9.93875 5.28299V8.58299C9.93878 8.65851 9.9217 8.73306 9.88879 8.80104C9.85589 8.86902 9.80801 8.92866 9.74875 8.97549V8.99999H9.71475C9.63282 9.05455 9.53654 9.08358 9.4381 9.0834C9.33966 9.08322 9.24349 9.05385 9.16175 8.99899C7.94175 8.97699 6.71575 8.50249 5.75075 7.74099C4.76275 6.96099 4.01275 5.85099 3.85175 4.56199L3.78125 4.00049ZM8.65425 7.95549C8.47725 7.40999 8.05625 6.78949 7.42525 6.24149C6.74525 5.65149 5.88525 5.20199 4.98325 5.05349C5.22475 5.78449 5.71975 6.44299 6.37025 6.95649C7.03675 7.48199 7.84375 7.83599 8.65425 7.95549Z" fill="black"/>
<path fill-rule="evenodd" clip-rule="evenodd" d="M18.9834 4.57178L19.0744 5.13078C19.3019 6.53228 18.8859 7.95478 18.2054 9.05378C17.5364 10.1348 16.5384 11.0138 15.4979 11.1828L15.0044 11.2628L14.9244 10.7698C14.7244 9.53728 14.9954 8.21478 15.6064 7.11478C16.2174 6.01478 17.1939 5.09678 18.4399 4.73128L18.9834 4.57178ZM18.1364 5.92678C17.4539 6.28278 16.8829 6.87678 16.4804 7.60078C16.0684 8.34278 15.8474 9.19578 15.8599 10.0158C16.3699 9.75328 16.9149 9.23828 17.3549 8.52728C17.8289 7.76228 18.1344 6.84078 18.1369 5.92728" fill="black"/>
</svg>
