<svg width="21" height="21" viewBox="0 0 21 21" fill="none" xmlns="http://www.w3.org/2000/svg">
<path d="M14 19.25C12.5417 19.25 11.3021 18.7396 10.2812 17.7188C9.26042 16.6979 8.75 15.4583 8.75 14C8.75 12.5417 9.26042 11.3021 10.2812 10.2812C11.3021 9.26042 12.5417 8.75 14 8.75C15.4583 8.75 16.6979 9.26042 17.7188 10.2812C18.7396 11.3021 19.25 12.5417 19.25 14C19.25 15.4583 18.7396 16.6979 17.7188 17.7188C16.6979 18.7396 15.4583 19.25 14 19.25ZM14 17.5C14.9625 17.5 15.7865 17.1573 16.4719 16.4719C17.1573 15.7865 17.5 14.9625 17.5 14C17.5 13.0375 17.1573 12.2135 16.4719 11.5281C15.7865 10.8427 14.9625 10.5 14 10.5C13.0375 10.5 12.2135 10.8427 11.5281 11.5281C10.8427 12.2135 10.5 13.0375 10.5 14C10.5 14.9625 10.8427 15.7865 11.5281 16.4719C12.2135 17.1573 13.0375 17.5 14 17.5ZM3.5 17.5C3.01875 17.5 2.60692 17.3288 2.2645 16.9864C1.92208 16.644 1.75058 16.2318 1.75 15.75V9.1C1.75 8.98333 1.76108 8.86667 1.78325 8.75C1.80542 8.63333 1.83808 8.51667 1.88125 8.4L3.63125 4.375H3.5C3.25208 4.375 3.04442 4.291 2.877 4.123C2.70958 3.955 2.62558 3.74733 2.625 3.5V2.625C2.625 2.37708 2.709 2.16942 2.877 2.002C3.045 1.83458 3.25267 1.75058 3.5 1.75H9.625C9.87292 1.75 10.0809 1.834 10.2489 2.002C10.4169 2.17 10.5006 2.37767 10.5 2.625V3.5C10.5 3.74792 10.416 3.95587 10.248 4.12387C10.08 4.29187 9.87233 4.37558 9.625 4.375H9.49375L10.9375 7.7C10.6604 7.84583 10.3979 7.99896 10.15 8.15937C9.90208 8.31979 9.66875 8.50208 9.45 8.70625L7.6125 4.375H5.5125L3.5 9.1V15.75H7.21875C7.29167 16.0562 7.38996 16.359 7.51363 16.6582C7.63729 16.9575 7.78692 17.2381 7.9625 17.5H3.5ZM14 7.875C13.3875 7.875 12.8698 7.66354 12.4469 7.24062C12.024 6.81771 11.8125 6.3 11.8125 5.6875C11.8125 5.075 12.024 4.55729 12.4469 4.13437C12.8698 3.71146 13.3875 3.5 14 3.5V7.875ZM14 7.875C14 7.2625 14.2115 6.74479 14.6344 6.32188C15.0573 5.89896 15.575 5.6875 16.1875 5.6875C16.8 5.6875 17.3177 5.89896 17.7406 6.32188C18.1635 6.74479 18.375 7.2625 18.375 7.875H14Z" fill="black"/>
</svg>
