<svg width="28" height="28" viewBox="0 0 28 28" fill="none" xmlns="http://www.w3.org/2000/svg">
<path d="M13.9984 2.3335C14.8964 2.33279 15.7884 2.48021 16.6385 2.76983C15.8329 3.60266 15.3255 4.6786 15.1953 5.82995C15.0651 6.98131 15.3195 8.14339 15.9187 9.13509C16.518 10.1268 17.4285 10.8924 18.5083 11.3125C19.5881 11.7327 20.7766 11.7839 21.8885 11.458L22.165 11.367V14.615C22.1652 14.7503 22.1889 14.8845 22.235 15.0117L22.2887 15.1365L24.2907 19.1417C24.3835 19.3272 24.4299 19.5324 24.426 19.7397C24.4221 19.9471 24.368 20.1505 24.2684 20.3323C24.1687 20.5142 24.0264 20.6693 23.8538 20.7841C23.6811 20.899 23.4831 20.9703 23.2769 20.992L23.1427 20.999H4.85403C4.64655 20.9991 4.44215 20.9488 4.25835 20.8526C4.07455 20.7563 3.91682 20.617 3.79868 20.4464C3.68054 20.2759 3.60551 20.0792 3.58003 19.8733C3.55455 19.6674 3.57936 19.4584 3.65236 19.2642L3.70603 19.1417L5.70919 15.1365C5.7694 15.0154 5.80809 14.8847 5.82353 14.7503L5.83169 14.6162V10.5002C5.83169 8.33423 6.69211 6.25701 8.22365 4.72546C9.7552 3.19391 11.8324 2.3335 13.9984 2.3335ZM20.415 3.50017C21.1886 3.50017 21.9304 3.80746 22.4774 4.35444C23.0244 4.90142 23.3317 5.64328 23.3317 6.41683C23.3317 7.19038 23.0244 7.93225 22.4774 8.47923C21.9304 9.02621 21.1886 9.3335 20.415 9.3335C19.6415 9.3335 18.8996 9.02621 18.3526 8.47923C17.8056 7.93225 17.4984 7.19038 17.4984 6.41683C17.4984 5.64328 17.8056 4.90142 18.3526 4.35444C18.8996 3.80746 19.6415 3.50017 20.415 3.50017ZM13.9984 24.5002C13.2743 24.5005 12.5679 24.2763 11.9765 23.8584C11.3852 23.4405 10.9381 22.8495 10.6967 22.1668H17.3C17.0587 22.8495 16.6115 23.4405 16.0202 23.8584C15.4288 24.2763 14.7225 24.5005 13.9984 24.5002Z" fill="#333333"/>
</svg>
