<svg width="30" height="30" viewBox="0 0 30 30" fill="none" xmlns="http://www.w3.org/2000/svg">
<path d="M23.8213 14.9996C23.8213 14.729 23.8095 14.4702 23.786 14.1996L25.9742 12.5407C26.4448 12.1878 26.5742 11.529 26.2801 11.0113L24.0801 7.21133C23.9391 6.96214 23.7109 6.77385 23.4395 6.68265C23.168 6.59145 22.8724 6.60376 22.6095 6.71722L20.0801 7.7878C19.6448 7.48192 19.186 7.21133 18.7037 6.9878L18.3625 4.27016C18.2919 3.68192 17.786 3.23486 17.1978 3.23486H12.8095C12.2095 3.23486 11.7037 3.68192 11.6331 4.27016L11.2919 6.9878C10.8095 7.21133 10.3507 7.48192 9.91542 7.7878L7.386 6.71722C6.84483 6.48192 6.20953 6.69369 5.91542 7.21133L3.71541 11.0231C3.4213 11.5407 3.55071 12.1878 4.0213 12.5525L6.20953 14.2113C6.16048 14.7396 6.16048 15.2713 6.20953 15.7996L4.0213 17.4584C3.55071 17.8113 3.4213 18.4702 3.71541 18.9878L5.91542 22.7878C6.20953 23.3055 6.84483 23.5172 7.386 23.2819L9.91542 22.2113C10.3507 22.5172 10.8095 22.7878 11.2919 23.0113L11.6331 25.729C11.7037 26.3172 12.2095 26.7643 12.7978 26.7643H17.186C17.7742 26.7643 18.2801 26.3172 18.3507 25.729L18.6919 23.0113C19.1742 22.7878 19.6331 22.5172 20.0684 22.2113L22.5978 23.2819C23.1389 23.5172 23.7742 23.3055 24.0684 22.7878L26.2684 18.9878C26.5625 18.4702 26.4331 17.8231 25.9625 17.4584L23.7742 15.7996C23.8095 15.529 23.8213 15.2702 23.8213 14.9996ZM15.0448 19.1172C12.7742 19.1172 10.9272 17.2702 10.9272 14.9996C10.9272 12.729 12.7742 10.8819 15.0448 10.8819C17.3154 10.8819 19.1625 12.729 19.1625 14.9996C19.1625 17.2702 17.3154 19.1172 15.0448 19.1172Z" fill="black"/>
</svg>
