<svg width="30" height="30" viewBox="0 0 30 30" fill="none" xmlns="http://www.w3.org/2000/svg">
<g clip-path="url(#clip0_1_13124)">
<path d="M25.267 7.08827H19.7494V6.04122C19.745 5.29982 19.4492 4.58989 18.9259 4.06474C18.6652 3.80313 18.3553 3.59567 18.014 3.45434C17.6728 3.313 17.307 3.24057 16.9376 3.24122H13.1023C12.733 3.24057 12.3672 3.313 12.0259 3.45434C11.6847 3.59567 11.3748 3.80313 11.1141 4.06474C10.5951 4.5918 10.3036 5.30149 10.3023 6.04122V7.08827H4.7847C4.55068 7.08827 4.32625 7.18124 4.16078 7.34671C3.99531 7.51218 3.90234 7.73661 3.90234 7.97063C3.90234 8.20464 3.99531 8.42907 4.16078 8.59455C4.32625 8.76002 4.55068 8.85298 4.7847 8.85298H6.45529V22.6883C6.45049 23.2245 6.55198 23.7563 6.75391 24.2531C6.95584 24.7498 7.2542 25.2016 7.63176 25.5824C8.40156 26.3366 9.43639 26.759 10.5141 26.7589H19.4788C20.5565 26.759 21.5914 26.3366 22.3612 25.5824C22.7387 25.2016 23.0371 24.7498 23.239 24.2531C23.4409 23.7563 23.5424 23.2245 23.5376 22.6883V8.85298H25.22C25.454 8.85298 25.6784 8.76002 25.8439 8.59455C26.0094 8.42907 26.1023 8.20464 26.1023 7.97063C26.1023 7.73661 26.0094 7.51218 25.8439 7.34671C25.6784 7.18124 25.454 7.08827 25.22 7.08827H25.267ZM12.0906 6.04122C12.0906 5.90542 12.1177 5.771 12.1702 5.64577C12.2227 5.52054 12.2996 5.40701 12.3965 5.3118C12.591 5.11945 12.8524 5.00983 13.1259 5.00592H16.9612C17.0988 5.00506 17.2353 5.03167 17.3626 5.0842C17.4898 5.13672 17.6053 5.2141 17.7023 5.3118C17.8947 5.5063 18.0043 5.76769 18.0082 6.04122V7.08827H12.1259L12.0906 6.04122ZM13.6553 20.8765C13.6553 21.1885 13.5313 21.4878 13.3107 21.7084C13.0901 21.929 12.7908 22.053 12.4788 22.053C12.1668 22.053 11.8676 21.929 11.6469 21.7084C11.4263 21.4878 11.3023 21.1885 11.3023 20.8765V14.4883C11.3023 14.1763 11.4263 13.877 11.6469 13.6564C11.8676 13.4358 12.1668 13.3118 12.4788 13.3118C12.7908 13.3118 13.0901 13.4358 13.3107 13.6564C13.5313 13.877 13.6553 14.1763 13.6553 14.4883V20.8765ZM18.7847 20.8765C18.7847 21.1885 18.6607 21.4878 18.4401 21.7084C18.2195 21.929 17.9202 22.053 17.6082 22.053C17.2962 22.053 16.997 21.929 16.7763 21.7084C16.5557 21.4878 16.4318 21.1885 16.4318 20.8765V14.4883C16.4318 14.1763 16.5557 13.877 16.7763 13.6564C16.997 13.4358 17.2962 13.3118 17.6082 13.3118C17.9202 13.3118 18.2195 13.4358 18.4401 13.6564C18.6607 13.877 18.7847 14.1763 18.7847 14.4883V20.8765Z" fill="black"/>
</g>
<defs>
<clipPath id="clip0_1_13124">
<rect width="28.2353" height="28.2353" fill="white" transform="translate(0.882812 0.882812)"/>
</clipPath>
</defs>
</svg>
